<svg width="23" height="17" viewBox="0 0 23 17" fill="none" xmlns="http://www.w3.org/2000/svg">
<path d="M20.3925 16.185H2.99707V15.2253L3.11704 14.7454C3.15703 14.3855 3.45295 13.4257 4.31672 12.466C5.39644 11.2663 8.51562 10.6665 9.29542 10.2466C9.91925 9.91067 9.91526 9.26684 9.83528 8.98692C9.45138 8.74698 8.79555 6.92746 8.51562 6.0477C8.11573 4.50811 7.78381 1.27297 9.65532 0.649139C11.5268 0.0253042 13.0344 0.389208 13.5543 0.649139C16.2896 2.32869 14.694 6.8275 13.5543 8.86696C13.3144 9.38682 13.4463 10.5465 15.8937 11.0264C18.341 11.5063 19.5527 12.8659 19.8526 13.4857C20.2365 14.0136 20.3725 15.5052 20.3925 16.185Z" fill="white"/>
<path d="M3.11014 8.3378C0.998698 8.86566 0.710774 10.8771 0.830742 11.8169H3.58997C3.64996 11.8769 7.04906 9.97736 8.92857 9.29754C5.98934 4.49881 7.44896 0.739804 8.68863 0.179952L7.90884 0H6.64917L5.98934 0.179952C3.41002 1.61957 5.56945 6.11838 5.86937 6.4183C6.10931 6.65824 6.04933 6.91817 5.98934 7.01815C5.90938 7.23809 5.22159 7.80994 3.11014 8.3378Z" fill="white"/>
<path d="M20.1955 8.33779C22.307 8.86565 22.5949 10.8771 22.4749 11.8169H19.7157C19.4388 11.5769 16.2566 9.97736 14.3771 9.29754C17.3163 4.49881 15.8567 0.739804 14.617 0.179952L15.3968 0H16.6565L17.3163 0.179952C19.8956 1.61957 17.7362 6.11838 17.4363 6.4183C17.1964 6.65824 17.2563 6.91817 17.3163 7.01814C17.3963 7.23808 18.0841 7.80993 20.1955 8.33779Z" fill="white"/>
</svg>
