<svg width="24" height="16" viewBox="0 0 24 16" fill="none" xmlns="http://www.w3.org/2000/svg">
<path fill-rule="evenodd" clip-rule="evenodd" d="M0 8.59072C3.9977 2.10796 14.2945 -6.9679 23.5 8.59072C20.0425 14.047 10.5021 21.6857 0 8.59072ZM3.56884 8.58556C6.16194 12.8534 13.1309 18.8283 20.2619 8.58556C17.5068 4.31775 10.3109 -1.65719 3.56884 8.58556Z" fill="white"/>
<path d="M7.61027 10.0258L7.28613 7.43328C12.3427 9.89672 11.662 6.40684 10.6896 4.35396C11.8565 3.44638 13.8769 4.51603 14.7413 5.16431C17.0751 7.36845 15.9298 10.7287 15.0654 12.1333C14.7953 12.2413 14.093 12.7161 12.1482 13.1051C10.2034 13.4941 8.31257 11.1603 7.61027 10.0258Z" fill="white"/>
</svg>
