<svg width="21" height="21" viewBox="0 0 21 21" fill="white" xmlns="http://www.w3.org/2000/svg">
<path d="M16.1288 6.24755C16.7555 14.835 9.65924 16.6518 6.27759 16.3839C10.3121 22.4226 16.4225 19.0111 16.4225 19.364C17.3156 20.3522 19.0143 20.4031 19.752 20.3051C18.9529 18.8778 19.1318 16.8348 19.3211 15.9918C21.5146 10.2041 18.1068 7.08407 16.1288 6.24755Z" fill="white"/>
<path fill-rule="evenodd" clip-rule="evenodd" d="M0.362982 15.2669C0.917886 15.4106 2.25879 15.5021 3.1832 14.7179C3.32029 14.5022 3.6924 14.1258 4.0841 14.3454C4.4758 14.565 6.10132 14.9919 6.86515 15.0708C7.66811 15.1291 9.88513 14.9531 11.9376 13.5415C13.9901 12.1299 14.7121 9.22816 14.8166 7.95376C14.8362 5.8167 13.6219 1.32692 8.6082 0.464249C3.59448 -0.398418 1.01579 3.43788 0.284622 5.42462C-0.0483005 6.52203 -0.232397 9.50259 0.911357 11.4632C0.996225 12.156 1.00536 13.8867 0.362982 15.2669ZM3.47696 8.79634C4.06104 8.79634 4.53454 8.32233 4.53454 7.73761C4.53454 7.15289 4.06104 6.67888 3.47696 6.67888C2.89287 6.67888 2.41938 7.15289 2.41938 7.73761C2.41938 8.32233 2.89287 8.79634 3.47696 8.79634ZM8.49067 7.73761C8.49067 8.32233 8.01718 8.79634 7.43309 8.79634C6.84901 8.79634 6.37551 8.32233 6.37551 7.73761C6.37551 7.15289 6.84901 6.67888 7.43309 6.67888C8.01718 6.67888 8.49067 7.15289 8.49067 7.73761ZM11.3892 8.79634C11.9733 8.79634 12.4468 8.32233 12.4468 7.73761C12.4468 7.15289 11.9733 6.67888 11.3892 6.67888C10.8051 6.67888 10.3316 7.15289 10.3316 7.73761C10.3316 8.32233 10.8051 8.79634 11.3892 8.79634Z" fill="white"/>
</svg>
