<svg width="11" height="11" viewBox="0 0 11 11" fill="none" xmlns="http://www.w3.org/2000/svg">
<path d="M5.5 10C7.98528 10 10 7.98528 10 5.5C10 3.01472 7.98528 1 5.5 1C3.01472 1 1 3.01472 1 5.5C1 7.98528 3.01472 10 5.5 10Z" fill="#FF1515" stroke="white"/>
<path d="M5.97656 5.79492C5.75586 6.01172 5.49805 6.12012 5.20313 6.12012C4.82617 6.12012 4.52441 5.99121 4.29785 5.7334C4.07129 5.47363 3.95801 5.12402 3.95801 4.68457C3.95801 4.40527 4.01856 4.14941 4.13965 3.91699C4.2627 3.68262 4.43359 3.50098 4.65234 3.37207C4.87109 3.24121 5.11719 3.17578 5.39063 3.17578C5.67188 3.17578 5.92188 3.24609 6.14063 3.38672C6.35938 3.52734 6.5293 3.72949 6.65039 3.99316C6.77148 4.25684 6.83301 4.55859 6.83496 4.89844V5.21191C6.83496 5.92285 6.6582 6.48145 6.30469 6.8877C5.95117 7.29395 5.4502 7.51074 4.80176 7.53809L4.59375 7.54102V6.83496L4.78125 6.83203C5.51758 6.79883 5.91602 6.45312 5.97656 5.79492ZM5.41113 5.47266C5.54785 5.47266 5.66504 5.4375 5.7627 5.36719C5.86231 5.29688 5.9375 5.21191 5.98828 5.1123V4.76367C5.98828 4.47656 5.93359 4.25391 5.82422 4.0957C5.71484 3.9375 5.56836 3.8584 5.38477 3.8584C5.21484 3.8584 5.0752 3.93652 4.96582 4.09277C4.85645 4.24707 4.80176 4.44141 4.80176 4.67578C4.80176 4.9082 4.85449 5.09961 4.95996 5.25C5.06738 5.39844 5.21777 5.47266 5.41113 5.47266Z" fill="white"/>
</svg>
