<svg width="11" height="11" viewBox="0 0 11 11" fill="none" xmlns="http://www.w3.org/2000/svg">
<path d="M5.5 10C7.98528 10 10 7.98528 10 5.5C10 3.01472 7.98528 1 5.5 1C3.01472 1 1 3.01472 1 5.5C1 7.98528 3.01472 10 5.5 10Z" fill="#9999FF" stroke="black"/>
<path d="M4.85741 4.99219H5.30858C5.52343 4.99219 5.68261 4.93848 5.78612 4.83105C5.88964 4.72363 5.9414 4.58105 5.9414 4.40332C5.9414 4.23145 5.88964 4.09766 5.78612 4.00195C5.68456 3.90625 5.54394 3.8584 5.36425 3.8584C5.20214 3.8584 5.0664 3.90332 4.95702 3.99316C4.84765 4.08105 4.79296 4.19629 4.79296 4.33887H3.94628C3.94628 4.11621 4.00585 3.91699 4.12499 3.74121C4.24608 3.56348 4.41405 3.4248 4.6289 3.3252C4.84569 3.22559 5.08397 3.17578 5.34374 3.17578C5.79491 3.17578 6.14843 3.28418 6.40429 3.50098C6.66016 3.71582 6.78808 4.0127 6.78808 4.3916C6.78808 4.58691 6.72851 4.7666 6.60938 4.93066C6.49023 5.09473 6.33398 5.2207 6.14062 5.30859C6.38086 5.39453 6.55957 5.52344 6.67675 5.69531C6.79589 5.86719 6.85546 6.07031 6.85546 6.30469C6.85546 6.68359 6.71679 6.9873 6.43944 7.21582C6.16405 7.44434 5.79882 7.55859 5.34374 7.55859C4.91796 7.55859 4.56933 7.44629 4.29784 7.22168C4.02831 6.99707 3.89355 6.7002 3.89355 6.33105H4.74022C4.74022 6.49121 4.7998 6.62207 4.91894 6.72363C5.04003 6.8252 5.18847 6.87598 5.36425 6.87598C5.56542 6.87598 5.72265 6.82324 5.83593 6.71777C5.95116 6.61035 6.00878 6.46875 6.00878 6.29297C6.00878 5.86719 5.77441 5.6543 5.30566 5.6543H4.85741V4.99219Z" fill="black"/>
</svg>
