<svg width="11" height="11" viewBox="0 0 11 11" fill="none" xmlns="http://www.w3.org/2000/svg">
<path d="M5.5 10C7.98528 10 10 7.98528 10 5.5C10 3.01472 7.98528 1 5.5 1C3.01472 1 1 3.01472 1 5.5C1 7.98528 3.01472 10 5.5 10Z" fill="#FFFF00" stroke="black"/>
<path d="M6.29297 3.19141V3.88868H6.21094C5.82813 3.89453 5.51953 3.99414 5.28516 4.1875C5.05273 4.38086 4.91309 4.64942 4.86621 4.99317C5.09277 4.7627 5.37891 4.64746 5.72461 4.64746C6.0957 4.64746 6.39063 4.78028 6.60938 5.0459C6.82813 5.31153 6.9375 5.66114 6.9375 6.09473C6.9375 6.37207 6.87695 6.62305 6.75586 6.84766C6.63672 7.07227 6.4668 7.24707 6.24609 7.37207C6.02734 7.49707 5.7793 7.55957 5.50195 7.55957C5.05273 7.55957 4.68945 7.40332 4.41211 7.09082C4.13672 6.77832 3.99902 6.36133 3.99902 5.83985V5.53516C3.99902 5.07227 4.08594 4.66407 4.25977 4.31055C4.43555 3.95508 4.68652 3.68067 5.0127 3.48731C5.34082 3.292 5.7207 3.19336 6.15234 3.19141H6.29297ZM5.4668 5.32715C5.33008 5.32715 5.20606 5.36328 5.09473 5.43555C4.9834 5.50586 4.90137 5.59961 4.84863 5.7168V5.97461C4.84863 6.25782 4.9043 6.4795 5.01563 6.63965C5.12695 6.79786 5.2832 6.87696 5.48438 6.87696C5.66602 6.87696 5.8125 6.80567 5.92383 6.66309C6.03711 6.51856 6.09375 6.33203 6.09375 6.10352C6.09375 5.8711 6.03711 5.6836 5.92383 5.54102C5.81055 5.39844 5.6582 5.32715 5.4668 5.32715Z" fill="black"/>
</svg>
