<svg width="11" height="11" viewBox="0 0 11 11" fill="none" xmlns="http://www.w3.org/2000/svg">
<path d="M5.5 10C7.98528 10 10 7.98528 10 5.5C10 3.01472 7.98528 1 5.5 1C3.01472 1 1 3.01472 1 5.5C1 7.98528 3.01472 10 5.5 10Z" fill="white" stroke="black"/>
<path d="M6.86719 5.73633C6.86719 6.32617 6.74512 6.77734 6.50098 7.08984C6.25684 7.40234 5.8994 7.55859 5.4287 7.55859C4.96386 7.55859 4.6084 7.40527 4.36231 7.09863C4.11621 6.79199 3.99022 6.35254 3.98438 5.78027V4.99512C3.98438 4.39941 4.10742 3.94727 4.35352 3.63867C4.60156 3.33008 4.958 3.17578 5.42284 3.17578C5.88769 3.17578 6.24315 3.3291 6.48925 3.63574C6.73534 3.94043 6.86133 4.37891 6.86719 4.95117V5.73633ZM6.0205 4.875C6.0205 4.52148 5.97167 4.26465 5.87401 4.10449C5.77831 3.94238 5.62792 3.86133 5.42284 3.86133C5.22362 3.86133 5.07616 3.93848 4.98046 4.09277C4.88671 4.24512 4.83691 4.48438 4.83106 4.81055V5.84766C4.83106 6.19531 4.87792 6.4541 4.97167 6.62402C5.06737 6.79199 5.21972 6.87598 5.4287 6.87598C5.63573 6.87598 5.78516 6.79492 5.87695 6.63281C5.96874 6.4707 6.01659 6.22266 6.0205 5.88867V4.875Z" fill="black"/>
</svg>
