<svg width="11" height="11" viewBox="0 0 11 11" fill="none" xmlns="http://www.w3.org/2000/svg">
<path d="M5.5 10C7.98528 10 10 7.98528 10 5.5C10 3.01472 7.98528 1 5.5 1C3.01472 1 1 3.01472 1 5.5C1 7.98528 3.01472 10 5.5 10Z" fill="#BFCCFF" stroke="black"/>
<path d="M6.91992 7.5H3.99609V6.91992L5.37598 5.44922C5.56543 5.24219 5.70508 5.06152 5.79492 4.90723C5.88672 4.75293 5.93262 4.60645 5.93262 4.46777C5.93262 4.27832 5.88477 4.12988 5.78906 4.02246C5.69336 3.91309 5.55664 3.8584 5.37891 3.8584C5.1875 3.8584 5.03613 3.9248 4.92481 4.05762C4.81543 4.18848 4.76074 4.36133 4.76074 4.57617H3.91113C3.91113 4.31641 3.97266 4.0791 4.0957 3.86426C4.2207 3.64941 4.39648 3.48145 4.62305 3.36035C4.84961 3.2373 5.10645 3.17578 5.39356 3.17578C5.83301 3.17578 6.17383 3.28125 6.41602 3.49219C6.66016 3.70312 6.78223 4.00098 6.78223 4.38574C6.78223 4.59668 6.72754 4.81152 6.61816 5.03027C6.50879 5.24902 6.32129 5.50391 6.05566 5.79492L5.08594 6.81738H6.91992V7.5Z" fill="black"/>
</svg>
