<svg width="11" height="11" viewBox="0 0 11 11" fill="none" xmlns="http://www.w3.org/2000/svg">
<path d="M5.5 10C7.98528 10 10 7.98528 10 5.5C10 3.01472 7.98528 1 5.5 1C3.01472 1 1 3.01472 1 5.5C1 7.98528 3.01472 10 5.5 10Z" fill="black" stroke="white"/>
<path d="M4.40137 7.5H3.55469V4.23633L2.54395 4.5498V3.86133L4.31055 3.22852H4.40137V7.5ZM8.71389 7.5H5.79004V6.91992L7.16992 5.44922C7.35938 5.24219 7.49902 5.06152 7.58887 4.90723C7.68066 4.75293 7.72655 4.60645 7.72655 4.46777C7.72655 4.27832 7.6787 4.12988 7.583 4.02246C7.48729 3.91309 7.35058 3.8584 7.17284 3.8584C6.98144 3.8584 6.83008 3.9248 6.71875 4.05762C6.60938 4.18848 6.55469 4.36133 6.55469 4.57617H5.70508C5.70508 4.31641 5.7666 4.0791 5.88965 3.86426C6.01465 3.64941 6.19043 3.48145 6.41699 3.36035C6.64355 3.2373 6.90039 3.17578 7.1875 3.17578C7.62695 3.17578 7.96777 3.28125 8.21 3.49219C8.4541 3.70312 8.57619 4.00098 8.57619 4.38574C8.57619 4.59668 8.52149 4.81152 8.4121 5.03027C8.3027 5.24902 8.1152 5.50391 7.84961 5.79492L6.87988 6.81738H8.71389V7.5Z" fill="white"/>
</svg>
