<svg width="11" height="11" viewBox="0 0 11 11" fill="none" xmlns="http://www.w3.org/2000/svg">
<path d="M5.5 10C7.98528 10 10 7.98528 10 5.5C10 3.01472 7.98528 1 5.5 1C3.01472 1 1 3.01472 1 5.5C1 7.98528 3.01472 10 5.5 10Z" fill="#7DF894" stroke="black"/>
<path d="M4.12207 5.40232L4.36816 3.23438H6.75879V3.94041H5.0625L4.95703 4.8574C5.1582 4.74998 5.37207 4.69629 5.59863 4.69629C6.00488 4.69629 6.32324 4.82227 6.55371 5.07422C6.78418 5.32617 6.89941 5.67871 6.89941 6.13184C6.89941 6.40723 6.84082 6.6543 6.72363 6.87305C6.6084 7.08984 6.44238 7.25879 6.22559 7.37988C6.00879 7.49902 5.75293 7.55859 5.45801 7.55859C5.2002 7.55859 4.96094 7.50682 4.74023 7.40331C4.51953 7.29783 4.34473 7.15037 4.21582 6.96092C4.08887 6.77146 4.02148 6.55564 4.01367 6.31346H4.85156C4.86914 6.49119 4.93066 6.62986 5.03613 6.72947C5.14356 6.82713 5.2832 6.87596 5.45508 6.87596C5.64648 6.87596 5.79395 6.8076 5.89746 6.67088C6.00098 6.53221 6.05273 6.33689 6.05273 6.08494C6.05273 5.84275 5.99316 5.65721 5.87402 5.5283C5.75488 5.39939 5.58594 5.33494 5.36719 5.33494C5.16602 5.33494 5.00293 5.38769 4.87793 5.49315L4.7959 5.56934L4.12207 5.40232Z" fill="black"/>
</svg>
