<svg width="11" height="11" viewBox="0 0 11 11" fill="none" xmlns="http://www.w3.org/2000/svg">
<path d="M5.5 10C7.98528 10 10 7.98528 10 5.5C10 3.01472 7.98528 1 5.5 1C3.01472 1 1 3.01472 1 5.5C1 7.98528 3.01472 10 5.5 10Z" fill="#DD0000" stroke="white"/>
<path d="M4.40137 7.5H3.55469V4.23633L2.54395 4.5498V3.86133L4.31055 3.22852H4.40137V7.5ZM8.6611 5.73633C8.6611 6.32617 8.5391 6.77734 8.2949 7.08984C8.0508 7.40234 7.69336 7.55859 7.22266 7.55859C6.75781 7.55859 6.40234 7.40527 6.15625 7.09863C5.91016 6.79199 5.78418 6.35254 5.77832 5.78027V4.99512C5.77832 4.39941 5.90137 3.94727 6.14746 3.63867C6.39551 3.33008 6.75194 3.17578 7.21679 3.17578C7.68163 3.17578 8.0371 3.3291 8.2832 3.63574C8.5293 3.94043 8.6553 4.37891 8.6611 4.95117V5.73633ZM7.81445 4.875C7.81445 4.52148 7.76561 4.26465 7.66796 4.10449C7.57226 3.94238 7.42187 3.86133 7.21679 3.86133C7.01757 3.86133 6.87012 3.93848 6.77441 4.09277C6.68066 4.24512 6.63086 4.48438 6.625 4.81055V5.84766C6.625 6.19531 6.67188 6.4541 6.76562 6.62402C6.86133 6.79199 7.01367 6.87598 7.22266 6.87598C7.42969 6.87598 7.5791 6.79492 7.6709 6.63281C7.7627 6.4707 7.81055 6.22266 7.81445 5.88867V4.875Z" fill="white"/>
</svg>
