<svg width="11" height="11" viewBox="0 0 11 11" fill="none" xmlns="http://www.w3.org/2000/svg">
<path d="M5.5 10C7.98528 10 10 7.98528 10 5.5C10 3.01472 7.98528 1 5.5 1C3.01472 1 1 3.01472 1 5.5C1 7.98528 3.01472 10 5.5 10Z" fill="#FF9100" stroke="black"/>
<path d="M6.77636 4.36816C6.77636 4.5752 6.72461 4.75879 6.62109 4.91895C6.51758 5.0791 6.37499 5.20703 6.19336 5.30273C6.40039 5.40234 6.56444 5.54004 6.68554 5.71582C6.80663 5.88965 6.86719 6.09473 6.86719 6.33105C6.86719 6.70996 6.73827 7.00977 6.48046 7.23047C6.22265 7.44922 5.87206 7.55859 5.4287 7.55859C4.98534 7.55859 4.63378 7.44824 4.37401 7.22754C4.11425 7.00684 3.98438 6.70801 3.98438 6.33105C3.98438 6.09473 4.04492 5.88867 4.16602 5.71289C4.28711 5.53711 4.45019 5.40039 4.65526 5.30273C4.47362 5.20703 4.33105 5.0791 4.22753 4.91895C4.12597 4.75879 4.07519 4.5752 4.07519 4.36816C4.07519 4.00488 4.19629 3.71582 4.43848 3.50098C4.68066 3.28418 5.00977 3.17578 5.42578 3.17578C5.83984 3.17578 6.16796 3.2832 6.41015 3.49805C6.65429 3.71094 6.77636 4.00098 6.77636 4.36816ZM6.01757 6.26953C6.01757 6.08398 5.96386 5.93555 5.85644 5.82422C5.74901 5.71289 5.60448 5.65723 5.42284 5.65723C5.24315 5.65723 5.09961 5.71289 4.99219 5.82422C4.88477 5.93359 4.83106 6.08203 4.83106 6.26953C4.83106 6.45117 4.88378 6.59766 4.98925 6.70898C5.09472 6.82031 5.2412 6.87598 5.4287 6.87598C5.6123 6.87598 5.75585 6.82227 5.85938 6.71484C5.96484 6.60742 6.01757 6.45898 6.01757 6.26953ZM5.92969 4.40918C5.92969 4.24316 5.88573 4.11035 5.79784 4.01074C5.70995 3.90918 5.58594 3.8584 5.42578 3.8584C5.26758 3.8584 5.14452 3.90723 5.05663 4.00488C4.96874 4.10254 4.92481 4.2373 4.92481 4.40918C4.92481 4.5791 4.96874 4.71582 5.05663 4.81934C5.14452 4.92285 5.26855 4.97461 5.4287 4.97461C5.58886 4.97461 5.7119 4.92285 5.79784 4.81934C5.88573 4.71582 5.92969 4.5791 5.92969 4.40918Z" fill="black"/>
</svg>
