<svg width="25" height="25" viewBox="0 0 25 25" fill="none" xmlns="http://www.w3.org/2000/svg">
<path fill-rule="evenodd" clip-rule="evenodd" d="M25 12.5C25 19.4036 19.4036 25 12.5 25C5.59644 25 0 19.4036 0 12.5C0 5.59644 5.59644 0 12.5 0C19.4036 0 25 5.59644 25 12.5ZM4.2188 18.7499C4.05038 19.6481 4.30561 19.9305 4.58339 19.9999H20.625C21.4167 19.3748 20.5382 17.795 20 17.0832C13.5833 10.6249 7.36111 14.3923 5.05208 17.0832C5.02785 17.1248 4.98635 17.1829 4.9342 17.256C4.72487 17.5492 4.34389 18.0828 4.2188 18.7499ZM12.3437 12.8125C14.5586 12.8125 16.3542 11.017 16.3542 8.80208C16.3542 6.58719 14.5586 4.79167 12.3437 4.79167C10.1289 4.79167 8.33333 6.58719 8.33333 8.80208C8.33333 11.017 10.1289 12.8125 12.3437 12.8125Z" fill="white"/>
</svg>
