<svg width="50" height="50" viewBox="0 0 50 50" fill="none" xmlns="http://www.w3.org/2000/svg">
  <rect width="50" height="50" fill="white"/>
  <path d="M25 3.125C13.013 3.125 3.125 13.013 3.125 25C3.125 36.987 13.013 46.875 25 46.875C36.987 46.875 46.875 36.987 46.875 25C46.875 13.013 36.987 3.125 25 3.125ZM25 10C27.761 10 30 12.239 30 15C30 17.761 27.761 20 25 20C22.239 20 20 17.761 20 15C20 12.239 22.239 10 25 10ZM25 41.25C19.525 41.25 14.572 38.221 12.5 33.125C12.537 28.003 20 25.375 25 25.375C30 25.375 37.463 28.003 37.5 33.125C35.428 38.221 30.475 41.25 25 41.25Z" fill="black"/>
  <path d="M33.75 16.25H28.125V11.25H21.875V16.25H16.25V21.875H21.875V27.5H28.125V21.875H33.75V16.25Z" fill="black"/>
</svg>
