<svg width="150" height="150" viewBox="0 0 150 150" fill="none" xmlns="http://www.w3.org/2000/svg">
<path d="M67.0001 0.550011C40.6481 3.30001 17.1021 20.649 6.39811 45.2C-0.499894 61.05 -1.64789 79.3 3.25011 96.101C9.30011 117.05 24.9501 134.749 45.2001 143.601C61.0501 150.499 79.3001 151.647 96.1021 146.749C121.25 139.499 141.051 118.851 147.551 93.199C157.699 53 132.8 11.897 92.5001 2.30001C83.6481 0.200011 75.8521 -0.350989 67.0001 0.550011ZM68.0001 47C74.3981 55.5 79.8001 62.5 80.0001 62.5C80.2001 62.5 86.8521 55.5 94.7001 47L109.05 31.5H117.2L115.45 33.352C114.45 34.398 107.95 41.449 101 49C94.0501 56.55 87.2501 63.898 85.8981 65.25L83.5001 67.8L102.25 92.75C112.55 106.5 121 117.898 121 118.102C121 118.352 114.852 118.5 107.398 118.5L93.7501 118.45L81.0501 101.45C72.3001 89.7 68.2001 84.647 67.8001 84.95C67.5001 85.2 60.3981 92.852 52.0001 101.95L36.7501 118.5H32.8981C30.7501 118.5 29.0001 118.398 29.0001 118.25C29.0001 118.102 36.9501 109.398 46.6481 98.95C56.3011 88.5 64.3011 79.75 64.3981 79.602C64.4501 79.398 56.5001 68.55 46.7501 55.5C37.0001 42.5 29.0001 31.75 29.0001 31.648C29.0001 31.551 35.1481 31.5 42.7001 31.5H56.3981L68.0001 47Z" fill="white"/>
</svg>
